<mxfile host="65bd71144e">
    <diagram id="VovNZANVm-1VAZdgPbZi" name="ページ1">
        <mxGraphModel dx="865" dy="1832" grid="1" gridSize="10" guides="1" tooltips="1" connect="1" arrows="1" fold="1" page="1" pageScale="1" pageWidth="827" pageHeight="1169" math="0" shadow="0">
            <root>
                <mxCell id="0"/>
                <mxCell id="1" parent="0"/>
                <mxCell id="D-FD7UeIrjnWj8UT3YPv-199" value="" style="rounded=0;whiteSpace=wrap;html=1;fillColor=none;" parent="1" vertex="1">
                    <mxGeometry x="30" y="1380" width="660" height="120" as="geometry"/>
                </mxCell>
                <mxCell id="D-FD7UeIrjnWj8UT3YPv-198" value="" style="rounded=0;whiteSpace=wrap;html=1;fillColor=none;" parent="1" vertex="1">
                    <mxGeometry x="30" y="1260" width="660" height="120" as="geometry"/>
                </mxCell>
                <mxCell id="D-FD7UeIrjnWj8UT3YPv-130" value="" style="rounded=0;whiteSpace=wrap;html=1;fillColor=none;" parent="1" vertex="1">
                    <mxGeometry x="50" y="190" width="930" height="190.5" as="geometry"/>
                </mxCell>
                <mxCell id="D-FD7UeIrjnWj8UT3YPv-97" value="正确" style="rounded=0;whiteSpace=wrap;html=1;fillColor=none;" parent="1" vertex="1">
                    <mxGeometry y="979" width="1430" height="190" as="geometry"/>
                </mxCell>
                <mxCell id="D-FD7UeIrjnWj8UT3YPv-101" value="システム" style="rounded=1;whiteSpace=wrap;html=1;fillColor=none;" parent="1" vertex="1">
                    <mxGeometry x="20" y="1030" width="120" height="60" as="geometry"/>
                </mxCell>
                <mxCell id="D-FD7UeIrjnWj8UT3YPv-109" value="" style="edgeStyle=orthogonalEdgeStyle;rounded=0;orthogonalLoop=1;jettySize=auto;html=1;" parent="1" source="D-FD7UeIrjnWj8UT3YPv-104" target="D-FD7UeIrjnWj8UT3YPv-108" edge="1">
                    <mxGeometry relative="1" as="geometry"/>
                </mxCell>
                <mxCell id="D-FD7UeIrjnWj8UT3YPv-104" value="User" style="rounded=1;whiteSpace=wrap;html=1;fillColor=none;" parent="1" vertex="1">
                    <mxGeometry x="30" y="830" width="120" height="60" as="geometry"/>
                </mxCell>
                <mxCell id="D-FD7UeIrjnWj8UT3YPv-108" value="ログイン" style="rounded=1;whiteSpace=wrap;html=1;fillColor=none;" parent="1" vertex="1">
                    <mxGeometry x="230" y="830" width="120" height="60" as="geometry"/>
                </mxCell>
                <mxCell id="D-FD7UeIrjnWj8UT3YPv-119" value="" style="edgeStyle=orthogonalEdgeStyle;rounded=0;orthogonalLoop=1;jettySize=auto;html=1;" parent="1" source="D-FD7UeIrjnWj8UT3YPv-114" target="D-FD7UeIrjnWj8UT3YPv-118" edge="1">
                    <mxGeometry relative="1" as="geometry"/>
                </mxCell>
                <mxCell id="D-FD7UeIrjnWj8UT3YPv-114" value="取出账号和密码(数据库）" style="rounded=1;whiteSpace=wrap;html=1;fillColor=none;" parent="1" vertex="1">
                    <mxGeometry x="230" y="1030" width="120" height="60" as="geometry"/>
                </mxCell>
                <mxCell id="D-FD7UeIrjnWj8UT3YPv-95" value="" style="rounded=0;whiteSpace=wrap;html=1;fillColor=none;" parent="1" vertex="1">
                    <mxGeometry y="759" width="1430" height="220" as="geometry"/>
                </mxCell>
                <mxCell id="D-FD7UeIrjnWj8UT3YPv-122" value="" style="edgeStyle=orthogonalEdgeStyle;rounded=0;orthogonalLoop=1;jettySize=auto;html=1;" parent="1" source="D-FD7UeIrjnWj8UT3YPv-118" target="D-FD7UeIrjnWj8UT3YPv-121" edge="1">
                    <mxGeometry relative="1" as="geometry"/>
                </mxCell>
                <mxCell id="D-FD7UeIrjnWj8UT3YPv-118" value="判断是否正确" style="rhombus;whiteSpace=wrap;html=1;fillColor=none;rounded=1;" parent="1" vertex="1">
                    <mxGeometry x="550" y="1020" width="80" height="80" as="geometry"/>
                </mxCell>
                <mxCell id="D-FD7UeIrjnWj8UT3YPv-124" value="" style="edgeStyle=orthogonalEdgeStyle;rounded=0;orthogonalLoop=1;jettySize=auto;html=1;" parent="1" source="D-FD7UeIrjnWj8UT3YPv-121" target="D-FD7UeIrjnWj8UT3YPv-123" edge="1">
                    <mxGeometry relative="1" as="geometry"/>
                </mxCell>
                <mxCell id="D-FD7UeIrjnWj8UT3YPv-121" value="显示登陆页面" style="rounded=1;whiteSpace=wrap;html=1;fillColor=none;" parent="1" vertex="1">
                    <mxGeometry x="827" y="1030" width="120" height="60" as="geometry"/>
                </mxCell>
                <mxCell id="D-FD7UeIrjnWj8UT3YPv-165" value="" style="edgeStyle=orthogonalEdgeStyle;rounded=0;orthogonalLoop=1;jettySize=auto;html=1;" parent="1" source="D-FD7UeIrjnWj8UT3YPv-123" target="D-FD7UeIrjnWj8UT3YPv-164" edge="1">
                    <mxGeometry relative="1" as="geometry"/>
                </mxCell>
                <mxCell id="D-FD7UeIrjnWj8UT3YPv-123" value="跳转博客页面" style="whiteSpace=wrap;html=1;fillColor=none;rounded=1;" parent="1" vertex="1">
                    <mxGeometry x="1080" y="1030" width="120" height="60" as="geometry"/>
                </mxCell>
                <mxCell id="D-FD7UeIrjnWj8UT3YPv-125" value="请重新输入账号和密码" style="rounded=1;whiteSpace=wrap;html=1;fillColor=none;" parent="1" vertex="1">
                    <mxGeometry x="530" y="830" width="120" height="60" as="geometry"/>
                </mxCell>
                <mxCell id="D-FD7UeIrjnWj8UT3YPv-128" value="" style="rounded=0;whiteSpace=wrap;html=1;fillColor=none;" parent="1" vertex="1">
                    <mxGeometry x="50" y="30" width="930" height="160" as="geometry"/>
                </mxCell>
                <mxCell id="D-FD7UeIrjnWj8UT3YPv-135" value="" style="edgeStyle=orthogonalEdgeStyle;rounded=0;orthogonalLoop=1;jettySize=auto;html=1;" parent="1" source="D-FD7UeIrjnWj8UT3YPv-129" target="D-FD7UeIrjnWj8UT3YPv-134" edge="1">
                    <mxGeometry relative="1" as="geometry"/>
                </mxCell>
                <mxCell id="D-FD7UeIrjnWj8UT3YPv-129" value="user" style="rounded=1;whiteSpace=wrap;html=1;fillColor=none;" parent="1" vertex="1">
                    <mxGeometry x="50" y="80" width="120" height="60" as="geometry"/>
                </mxCell>
                <mxCell id="D-FD7UeIrjnWj8UT3YPv-132" value="システム" style="rounded=1;whiteSpace=wrap;html=1;fillColor=none;" parent="1" vertex="1">
                    <mxGeometry x="50" y="250" width="120" height="60" as="geometry"/>
                </mxCell>
                <mxCell id="D-FD7UeIrjnWj8UT3YPv-134" value="注册" style="whiteSpace=wrap;html=1;fillColor=none;rounded=1;" parent="1" vertex="1">
                    <mxGeometry x="250" y="80" width="120" height="60" as="geometry"/>
                </mxCell>
                <mxCell id="D-FD7UeIrjnWj8UT3YPv-143" value="" style="edgeStyle=orthogonalEdgeStyle;rounded=0;orthogonalLoop=1;jettySize=auto;html=1;" parent="1" source="D-FD7UeIrjnWj8UT3YPv-141" target="D-FD7UeIrjnWj8UT3YPv-142" edge="1">
                    <mxGeometry relative="1" as="geometry">
                        <Array as="points">
                            <mxPoint x="420" y="280"/>
                            <mxPoint x="420" y="280"/>
                        </Array>
                    </mxGeometry>
                </mxCell>
                <mxCell id="D-FD7UeIrjnWj8UT3YPv-222" value="没有重复" style="edgeLabel;html=1;align=center;verticalAlign=middle;resizable=0;points=[];" parent="D-FD7UeIrjnWj8UT3YPv-143" vertex="1" connectable="0">
                    <mxGeometry x="-0.2435" y="-1" relative="1" as="geometry">
                        <mxPoint y="14" as="offset"/>
                    </mxGeometry>
                </mxCell>
                <mxCell id="D-FD7UeIrjnWj8UT3YPv-141" value="判断有没有重复&lt;br&gt;的用户名" style="rhombus;whiteSpace=wrap;html=1;fillColor=none;" parent="1" vertex="1">
                    <mxGeometry x="250" y="240" width="120" height="80" as="geometry"/>
                </mxCell>
                <mxCell id="D-FD7UeIrjnWj8UT3YPv-156" value="" style="edgeStyle=orthogonalEdgeStyle;rounded=0;orthogonalLoop=1;jettySize=auto;html=1;" parent="1" source="D-FD7UeIrjnWj8UT3YPv-142" target="D-FD7UeIrjnWj8UT3YPv-146" edge="1">
                    <mxGeometry relative="1" as="geometry"/>
                </mxCell>
                <mxCell id="D-FD7UeIrjnWj8UT3YPv-142" value="存入账号和密码" style="rounded=1;whiteSpace=wrap;html=1;fillColor=none;" parent="1" vertex="1">
                    <mxGeometry x="465" y="252" width="120" height="60" as="geometry"/>
                </mxCell>
                <mxCell id="D-FD7UeIrjnWj8UT3YPv-158" value="" style="edgeStyle=orthogonalEdgeStyle;rounded=0;orthogonalLoop=1;jettySize=auto;html=1;" parent="1" source="D-FD7UeIrjnWj8UT3YPv-146" edge="1">
                    <mxGeometry relative="1" as="geometry">
                        <mxPoint x="885" y="282.5" as="targetPoint"/>
                    </mxGeometry>
                </mxCell>
                <mxCell id="D-FD7UeIrjnWj8UT3YPv-146" value="显示登陆页面" style="rounded=1;whiteSpace=wrap;html=1;fillColor=none;" parent="1" vertex="1">
                    <mxGeometry x="685" y="252.5" width="120" height="60" as="geometry"/>
                </mxCell>
                <mxCell id="D-FD7UeIrjnWj8UT3YPv-164" value="" style="ellipse;html=1;shape=endState;fillColor=#000000;strokeColor=#ff0000;" parent="1" vertex="1">
                    <mxGeometry x="1360" y="1045" width="30" height="30" as="geometry"/>
                </mxCell>
                <mxCell id="D-FD7UeIrjnWj8UT3YPv-168" value="" style="ellipse;html=1;shape=endState;fillColor=#000000;strokeColor=#ff0000;" parent="1" vertex="1">
                    <mxGeometry x="890" y="265" width="30" height="30" as="geometry"/>
                </mxCell>
                <mxCell id="D-FD7UeIrjnWj8UT3YPv-178" value="" style="ellipse;html=1;shape=startState;fillColor=#000000;strokeColor=#ff0000;" parent="1" vertex="1">
                    <mxGeometry x="75" y="770" width="30" height="30" as="geometry"/>
                </mxCell>
                <mxCell id="D-FD7UeIrjnWj8UT3YPv-180" value="" style="ellipse;html=1;shape=startState;fillColor=#000000;strokeColor=#ff0000;" parent="1" vertex="1">
                    <mxGeometry x="95" y="30" width="30" height="30" as="geometry"/>
                </mxCell>
                <mxCell id="D-FD7UeIrjnWj8UT3YPv-184" value="" style="endArrow=classic;html=1;rounded=0;entryX=0;entryY=0.75;entryDx=0;entryDy=0;exitX=0;exitY=0.5;exitDx=0;exitDy=0;" parent="1" source="D-FD7UeIrjnWj8UT3YPv-141" target="D-FD7UeIrjnWj8UT3YPv-134" edge="1">
                    <mxGeometry width="50" height="50" relative="1" as="geometry">
                        <mxPoint x="280" y="320" as="sourcePoint"/>
                        <mxPoint x="330" y="270" as="targetPoint"/>
                        <Array as="points">
                            <mxPoint x="220" y="282"/>
                            <mxPoint x="220" y="125"/>
                        </Array>
                    </mxGeometry>
                </mxCell>
                <mxCell id="D-FD7UeIrjnWj8UT3YPv-185" value="" style="endArrow=classic;html=1;rounded=0;exitX=0.5;exitY=1;exitDx=0;exitDy=0;entryX=0.5;entryY=0;entryDx=0;entryDy=0;" parent="1" source="D-FD7UeIrjnWj8UT3YPv-134" target="D-FD7UeIrjnWj8UT3YPv-141" edge="1">
                    <mxGeometry width="50" height="50" relative="1" as="geometry">
                        <mxPoint x="280" y="320" as="sourcePoint"/>
                        <mxPoint x="330" y="270" as="targetPoint"/>
                    </mxGeometry>
                </mxCell>
                <mxCell id="D-FD7UeIrjnWj8UT3YPv-221" value="有重复" style="edgeLabel;html=1;align=center;verticalAlign=middle;resizable=0;points=[];" parent="D-FD7UeIrjnWj8UT3YPv-185" vertex="1" connectable="0">
                    <mxGeometry x="0.3252" relative="1" as="geometry">
                        <mxPoint x="-69" y="-8" as="offset"/>
                    </mxGeometry>
                </mxCell>
                <mxCell id="D-FD7UeIrjnWj8UT3YPv-193" value="" style="endArrow=classic;html=1;rounded=0;exitX=0.499;exitY=0.062;exitDx=0;exitDy=0;exitPerimeter=0;entryX=0.5;entryY=1;entryDx=0;entryDy=0;" parent="1" source="D-FD7UeIrjnWj8UT3YPv-118" target="D-FD7UeIrjnWj8UT3YPv-125" edge="1">
                    <mxGeometry width="50" height="50" relative="1" as="geometry">
                        <mxPoint x="640" y="1040" as="sourcePoint"/>
                        <mxPoint x="690" y="990" as="targetPoint"/>
                    </mxGeometry>
                </mxCell>
                <mxCell id="D-FD7UeIrjnWj8UT3YPv-220" value="不正确" style="edgeLabel;html=1;align=center;verticalAlign=middle;resizable=0;points=[];" parent="D-FD7UeIrjnWj8UT3YPv-193" vertex="1" connectable="0">
                    <mxGeometry x="0.2897" relative="1" as="geometry">
                        <mxPoint x="20" as="offset"/>
                    </mxGeometry>
                </mxCell>
                <mxCell id="D-FD7UeIrjnWj8UT3YPv-195" value="" style="endArrow=classic;html=1;rounded=0;exitX=0.203;exitY=0.595;exitDx=0;exitDy=0;exitPerimeter=0;entryX=0.5;entryY=0;entryDx=0;entryDy=0;" parent="1" source="D-FD7UeIrjnWj8UT3YPv-95" target="D-FD7UeIrjnWj8UT3YPv-114" edge="1">
                    <mxGeometry width="50" height="50" relative="1" as="geometry">
                        <mxPoint x="340" y="970" as="sourcePoint"/>
                        <mxPoint x="390" y="920" as="targetPoint"/>
                    </mxGeometry>
                </mxCell>
                <mxCell id="D-FD7UeIrjnWj8UT3YPv-196" value="" style="endArrow=classic;html=1;rounded=0;entryX=0.063;entryY=0.323;entryDx=0;entryDy=0;entryPerimeter=0;" parent="1" target="D-FD7UeIrjnWj8UT3YPv-95" edge="1">
                    <mxGeometry width="50" height="50" relative="1" as="geometry">
                        <mxPoint x="90" y="800" as="sourcePoint"/>
                        <mxPoint x="420" y="920" as="targetPoint"/>
                    </mxGeometry>
                </mxCell>
                <mxCell id="D-FD7UeIrjnWj8UT3YPv-197" value="" style="endArrow=classic;html=1;rounded=0;" parent="1" target="D-FD7UeIrjnWj8UT3YPv-129" edge="1">
                    <mxGeometry width="50" height="50" relative="1" as="geometry">
                        <mxPoint x="110" y="50" as="sourcePoint"/>
                        <mxPoint x="420" y="160" as="targetPoint"/>
                    </mxGeometry>
                </mxCell>
                <mxCell id="D-FD7UeIrjnWj8UT3YPv-206" value="" style="edgeStyle=orthogonalEdgeStyle;rounded=0;orthogonalLoop=1;jettySize=auto;html=1;" parent="1" source="D-FD7UeIrjnWj8UT3YPv-200" target="D-FD7UeIrjnWj8UT3YPv-205" edge="1">
                    <mxGeometry relative="1" as="geometry"/>
                </mxCell>
                <mxCell id="D-FD7UeIrjnWj8UT3YPv-200" value="user" style="rounded=1;whiteSpace=wrap;html=1;fillColor=none;" parent="1" vertex="1">
                    <mxGeometry x="30" y="1300" width="120" height="60" as="geometry"/>
                </mxCell>
                <mxCell id="D-FD7UeIrjnWj8UT3YPv-203" value="" style="endArrow=classic;html=1;rounded=0;entryX=0.245;entryY=0.459;entryDx=0;entryDy=0;entryPerimeter=0;exitX=0;exitY=0.5;exitDx=0;exitDy=0;" parent="1" source="D-FD7UeIrjnWj8UT3YPv-125" target="D-FD7UeIrjnWj8UT3YPv-95" edge="1">
                    <mxGeometry width="50" height="50" relative="1" as="geometry">
                        <mxPoint x="290" y="940" as="sourcePoint"/>
                        <mxPoint x="340" y="890" as="targetPoint"/>
                    </mxGeometry>
                </mxCell>
                <mxCell id="D-FD7UeIrjnWj8UT3YPv-204" value="システム" style="rounded=1;whiteSpace=wrap;html=1;fillColor=none;" parent="1" vertex="1">
                    <mxGeometry x="30" y="1420" width="120" height="60" as="geometry"/>
                </mxCell>
                <mxCell id="D-FD7UeIrjnWj8UT3YPv-211" value="" style="edgeStyle=orthogonalEdgeStyle;rounded=0;orthogonalLoop=1;jettySize=auto;html=1;" parent="1" source="D-FD7UeIrjnWj8UT3YPv-205" target="D-FD7UeIrjnWj8UT3YPv-210" edge="1">
                    <mxGeometry relative="1" as="geometry"/>
                </mxCell>
                <mxCell id="D-FD7UeIrjnWj8UT3YPv-205" value="登陆博客" style="rounded=1;whiteSpace=wrap;html=1;fillColor=none;" parent="1" vertex="1">
                    <mxGeometry x="240" y="1300" width="120" height="60" as="geometry"/>
                </mxCell>
                <mxCell id="D-FD7UeIrjnWj8UT3YPv-210" value="显示博客页面" style="rounded=1;whiteSpace=wrap;html=1;fillColor=none;" parent="1" vertex="1">
                    <mxGeometry x="240" y="1420" width="120" height="60" as="geometry"/>
                </mxCell>
                <mxCell id="D-FD7UeIrjnWj8UT3YPv-212" value="" style="ellipse;html=1;shape=startState;fillColor=#000000;strokeColor=#ff0000;" parent="1" vertex="1">
                    <mxGeometry x="75" y="1260" width="30" height="30" as="geometry"/>
                </mxCell>
                <mxCell id="D-FD7UeIrjnWj8UT3YPv-213" value="" style="edgeStyle=orthogonalEdgeStyle;html=1;verticalAlign=bottom;endArrow=open;endSize=8;strokeColor=#ff0000;rounded=0;" parent="1" source="D-FD7UeIrjnWj8UT3YPv-212" edge="1">
                    <mxGeometry relative="1" as="geometry">
                        <mxPoint x="90" y="1300" as="targetPoint"/>
                    </mxGeometry>
                </mxCell>
                <mxCell id="D-FD7UeIrjnWj8UT3YPv-214" value="" style="html=1;fillColor=none;" parent="1" vertex="1">
                    <mxGeometry x="30" y="1570" width="800" height="110" as="geometry"/>
                </mxCell>
                <mxCell id="D-FD7UeIrjnWj8UT3YPv-215" value="" style="html=1;fillColor=none;" parent="1" vertex="1">
                    <mxGeometry x="30" y="1680" width="800" height="120" as="geometry"/>
                </mxCell>
                <mxCell id="D-FD7UeIrjnWj8UT3YPv-217" value="" style="ellipse;html=1;shape=endState;fillColor=#000000;strokeColor=#ff0000;" parent="1" vertex="1">
                    <mxGeometry x="655" y="1315" width="30" height="30" as="geometry"/>
                </mxCell>
                <mxCell id="D-FD7UeIrjnWj8UT3YPv-223" value="注册" style="text;html=1;align=center;verticalAlign=middle;resizable=0;points=[];autosize=1;strokeColor=none;fillColor=none;" parent="1" vertex="1">
                    <mxGeometry x="45" y="-5" width="50" height="30" as="geometry"/>
                </mxCell>
                <mxCell id="D-FD7UeIrjnWj8UT3YPv-224" value="登录" style="text;html=1;align=center;verticalAlign=middle;resizable=0;points=[];autosize=1;strokeColor=none;fillColor=none;" parent="1" vertex="1">
                    <mxGeometry x="25" y="695" width="50" height="30" as="geometry"/>
                </mxCell>
                <mxCell id="D-FD7UeIrjnWj8UT3YPv-225" value="自己的博客" style="text;html=1;align=center;verticalAlign=middle;resizable=0;points=[];autosize=1;strokeColor=none;fillColor=none;" parent="1" vertex="1">
                    <mxGeometry x="20" y="1225" width="80" height="30" as="geometry"/>
                </mxCell>
                <mxCell id="D-FD7UeIrjnWj8UT3YPv-226" value="编辑博客" style="text;html=1;align=center;verticalAlign=middle;resizable=0;points=[];autosize=1;strokeColor=none;fillColor=none;" parent="1" vertex="1">
                    <mxGeometry x="15" y="1535" width="70" height="30" as="geometry"/>
                </mxCell>
                <mxCell id="D-FD7UeIrjnWj8UT3YPv-230" value="" style="edgeStyle=orthogonalEdgeStyle;rounded=0;orthogonalLoop=1;jettySize=auto;html=1;" parent="1" source="D-FD7UeIrjnWj8UT3YPv-227" target="D-FD7UeIrjnWj8UT3YPv-229" edge="1">
                    <mxGeometry relative="1" as="geometry"/>
                </mxCell>
                <mxCell id="D-FD7UeIrjnWj8UT3YPv-227" value="user" style="rounded=1;whiteSpace=wrap;html=1;fillColor=none;" parent="1" vertex="1">
                    <mxGeometry x="50" y="1610" width="120" height="60" as="geometry"/>
                </mxCell>
                <mxCell id="D-FD7UeIrjnWj8UT3YPv-228" value="システム" style="rounded=1;whiteSpace=wrap;html=1;fillColor=none;" parent="1" vertex="1">
                    <mxGeometry x="50" y="1710" width="120" height="60" as="geometry"/>
                </mxCell>
                <mxCell id="D-FD7UeIrjnWj8UT3YPv-240" value="" style="edgeStyle=orthogonalEdgeStyle;rounded=0;orthogonalLoop=1;jettySize=auto;html=1;" parent="1" source="D-FD7UeIrjnWj8UT3YPv-229" target="D-FD7UeIrjnWj8UT3YPv-239" edge="1">
                    <mxGeometry relative="1" as="geometry"/>
                </mxCell>
                <mxCell id="2" value="" style="edgeStyle=none;html=1;" parent="1" source="D-FD7UeIrjnWj8UT3YPv-229" target="D-FD7UeIrjnWj8UT3YPv-242" edge="1">
                    <mxGeometry relative="1" as="geometry"/>
                </mxCell>
                <mxCell id="D-FD7UeIrjnWj8UT3YPv-229" value="编辑博客" style="rounded=1;whiteSpace=wrap;html=1;fillColor=none;" parent="1" vertex="1">
                    <mxGeometry x="270" y="1610" width="120" height="60" as="geometry"/>
                </mxCell>
                <mxCell id="D-FD7UeIrjnWj8UT3YPv-237" value="" style="ellipse;html=1;shape=startState;fillColor=#000000;strokeColor=#ff0000;" parent="1" vertex="1">
                    <mxGeometry x="95" y="1570" width="30" height="30" as="geometry"/>
                </mxCell>
                <mxCell id="D-FD7UeIrjnWj8UT3YPv-238" value="" style="edgeStyle=orthogonalEdgeStyle;html=1;verticalAlign=bottom;endArrow=open;endSize=8;strokeColor=#ff0000;rounded=0;entryX=0.5;entryY=0;entryDx=0;entryDy=0;" parent="1" source="D-FD7UeIrjnWj8UT3YPv-237" target="D-FD7UeIrjnWj8UT3YPv-227" edge="1">
                    <mxGeometry relative="1" as="geometry">
                        <mxPoint x="335" y="1550" as="targetPoint"/>
                    </mxGeometry>
                </mxCell>
                <mxCell id="D-FD7UeIrjnWj8UT3YPv-243" value="" style="edgeStyle=orthogonalEdgeStyle;rounded=0;orthogonalLoop=1;jettySize=auto;html=1;" parent="1" source="D-FD7UeIrjnWj8UT3YPv-239" target="D-FD7UeIrjnWj8UT3YPv-242" edge="1">
                    <mxGeometry relative="1" as="geometry"/>
                </mxCell>
                <mxCell id="D-FD7UeIrjnWj8UT3YPv-239" value="(编辑内容至博客页面)显示博客" style="rounded=1;whiteSpace=wrap;html=1;fillColor=none;" parent="1" vertex="1">
                    <mxGeometry x="270" y="1710" width="120" height="60" as="geometry"/>
                </mxCell>
                <mxCell id="D-FD7UeIrjnWj8UT3YPv-245" value="" style="edgeStyle=orthogonalEdgeStyle;rounded=0;orthogonalLoop=1;jettySize=auto;html=1;" parent="1" source="D-FD7UeIrjnWj8UT3YPv-242" edge="1">
                    <mxGeometry relative="1" as="geometry">
                        <mxPoint x="645" y="1640" as="targetPoint"/>
                    </mxGeometry>
                </mxCell>
                <mxCell id="D-FD7UeIrjnWj8UT3YPv-242" value="浏览博客" style="rounded=1;whiteSpace=wrap;html=1;fillColor=none;" parent="1" vertex="1">
                    <mxGeometry x="445" y="1610" width="120" height="60" as="geometry"/>
                </mxCell>
                <mxCell id="D-FD7UeIrjnWj8UT3YPv-252" value="" style="endArrow=classic;html=1;rounded=0;exitX=1;exitY=0.5;exitDx=0;exitDy=0;entryX=0.5;entryY=1;entryDx=0;entryDy=0;" parent="1" source="D-FD7UeIrjnWj8UT3YPv-210" target="D-FD7UeIrjnWj8UT3YPv-253" edge="1">
                    <mxGeometry width="50" height="50" relative="1" as="geometry">
                        <mxPoint x="300" y="1460" as="sourcePoint"/>
                        <mxPoint x="350" y="1410" as="targetPoint"/>
                        <Array as="points">
                            <mxPoint x="540" y="1450"/>
                        </Array>
                    </mxGeometry>
                </mxCell>
                <mxCell id="D-FD7UeIrjnWj8UT3YPv-253" value="&lt;span&gt;增删改查（改删还在实现中）&lt;/span&gt;" style="rounded=1;whiteSpace=wrap;html=1;fillColor=none;" parent="1" vertex="1">
                    <mxGeometry x="480" y="1300" width="120" height="60" as="geometry"/>
                </mxCell>
                <mxCell id="D-FD7UeIrjnWj8UT3YPv-258" value="" style="endArrow=classic;html=1;rounded=0;" parent="1" source="D-FD7UeIrjnWj8UT3YPv-217" target="D-FD7UeIrjnWj8UT3YPv-253" edge="1">
                    <mxGeometry width="50" height="50" relative="1" as="geometry">
                        <mxPoint x="490" y="1460" as="sourcePoint"/>
                        <mxPoint x="540" y="1410" as="targetPoint"/>
                    </mxGeometry>
                </mxCell>
                <mxCell id="D-FD7UeIrjnWj8UT3YPv-260" value="" style="ellipse;html=1;shape=endState;fillColor=#000000;strokeColor=#ff0000;" parent="1" vertex="1">
                    <mxGeometry x="640" y="1625" width="30" height="30" as="geometry"/>
                </mxCell>
            </root>
        </mxGraphModel>
    </diagram>
</mxfile>